<svg width="44" height="38" viewBox="0 0 44 38" fill="none" xmlns="http://www.w3.org/2000/svg">
<path d="M14.2703 21.375H10.7027C10.0457 21.375 9.51351 21.9064 9.51351 22.5625V36.8125C9.51351 37.4686 10.0457 38 10.7027 38H14.2703C14.9273 38 15.4595 37.4686 15.4595 36.8125V22.5625C15.4595 21.9064 14.9273 21.375 14.2703 21.375ZM4.75676 28.5H1.18919C0.532162 28.5 0 29.0314 0 29.6875V36.8125C0 37.4686 0.532162 38 1.18919 38H4.75676C5.41378 38 5.94595 37.4686 5.94595 36.8125V29.6875C5.94595 29.0314 5.41378 28.5 4.75676 28.5ZM23.7838 14.25H20.2162C19.5592 14.25 19.027 14.7814 19.027 15.4375V36.8125C19.027 37.4686 19.5592 38 20.2162 38H23.7838C24.4408 38 24.973 37.4686 24.973 36.8125V15.4375C24.973 14.7814 24.4408 14.25 23.7838 14.25ZM33.2973 7.125H29.7297C29.0727 7.125 28.5405 7.65641 28.5405 8.3125V36.8125C28.5405 37.4686 29.0727 38 29.7297 38H33.2973C33.9543 38 34.4865 37.4686 34.4865 36.8125V8.3125C34.4865 7.65641 33.9543 7.125 33.2973 7.125ZM42.8108 0H39.2432C38.5862 0 38.0541 0.531406 38.0541 1.1875V36.8125C38.0541 37.4686 38.5862 38 39.2432 38H42.8108C43.4678 38 44 37.4686 44 36.8125V1.1875C44 0.531406 43.4678 0 42.8108 0Z" fill="#00e500"/>
</svg>
